<?xml version="1.0" encoding="UTF-8"?>
<svg width="502px" height="501px" viewBox="0 0 502 501" version="1.1" xmlns="http://www.w3.org/2000/svg" xmlns:xlink="http://www.w3.org/1999/xlink">
    <!-- Generator: Sketch 58 (84663) - https://sketch.com -->
    <title>tools</title>
    <desc>Created with Sketch.</desc>
    <g id="Page-1" stroke="none" stroke-width="1" fill="none" fill-rule="evenodd">
        <g id="tools" fill="#FFFFFF" fill-rule="nonzero">
            <path d="M472.577837,378.315887 C462.169711,370.99343 450.158152,367.059821 438.025284,366.418238 C392.295663,336.480957 362.340139,314.010881 344.851082,296.526766 L291.127777,242.818638 L323.728622,206.336427 C329.907561,209.823079 336.543365,212.120455 343.181125,213.068159 C348.190018,213.902413 351.528953,213.902413 354.868867,213.902413 C361.547716,213.902413 363.216695,213.902413 369.895544,219.744143 C366.556608,222.247882 364.886652,226.421106 364.886652,230.593352 C364.886652,234.765597 366.556608,239.774053 369.895544,243.112045 L399.114409,272.322655 C403.288812,277.330132 409.966683,279.833871 416.645532,279.833871 C423.324381,279.833871 430.002252,277.330132 434.176655,271.488401 L493.448874,212.232928 C498.457766,208.059704 500.962212,201.383719 500.962212,194.706757 C500.962212,188.029795 498.457766,182.188064 493.448874,177.180587 L464.230009,147.969977 C460.891074,144.631984 456.716671,142.962499 452.542268,142.962499 C448.367865,142.962499 444.19444,145.466238 440.854526,147.969977 C434.175677,142.128246 434.175677,140.458761 434.175677,133.781798 C434.175677,130.443806 434.175677,126.270582 432.50572,121.263105 C430.835763,109.578666 424.992381,97.8952039 415.809086,88.7145029 L385.755732,58.6696393 C368.224609,41.1434688 359.876781,32.7979994 337.336765,22.7830448 C288.917799,0.24939712 239.663365,4.42262085 167.868915,36.9712231 C163.694512,38.6407082 162.025533,41.9787004 162.860023,46.1519241 C163.694512,50.3251478 167.034426,52.8288865 171.207851,52.8288865 L182.060125,52.8288865 C218.792328,52.8288865 237.99243,52.8288865 271.385697,86.2117423 C286.007359,100.829273 286.429006,123.242623 273.3286,139.733068 C271.56277,139.99909 270.218586,140.791288 268.881251,142.128246 L231.797839,183.506439 L203.765651,155.482171 C172.955093,124.680317 151.283807,95.5381687 134.604783,63.0883467 C133.729205,46.6683202 127.138403,31.3055364 115.275546,19.4460307 C101.084336,5.25883044 81.0487667,-1.41813193 61.0131974,0.251353166 C58.5087512,1.0856067 56.004305,2.7550918 55.1698158,4.4245769 C53.4998589,6.92831553 53.4998589,10.2663077 55.1698158,12.7700463 L78.5443206,54.4993496 C73.5354282,65.3485577 61.8476867,72.02552 50.1609234,71.1912665 L25.950951,31.1304703 C25.1164617,28.6267317 21.7765479,26.9572466 19.2721018,26.9572466 C16.7676556,26.1229931 14.2632094,27.7915001 12.5932526,30.2952388 C-7.44231681,60.3401024 0.072,100.399921 30.1243757,121.264083 C40.4786954,128.657936 52.1439361,132.769545 63.9578782,133.6126 C64.0899486,133.668348 64.2141926,133.736809 64.3511545,133.782776 C96.9089548,150.474693 126.12782,172.173109 157.015663,203.053205 L187.547405,232.881925 L10.0897847,430.894398 C3.41093546,437.571361 0.072,446.751084 0.072,455.931785 C0.072,465.112486 3.41093546,473.457955 10.0897847,480.134918 L21.7775262,491.819357 C28.4563755,497.661088 36.8042033,501.000058 45.1520311,501.000058 C53.4998589,501.000058 62.6831543,497.662066 69.3620035,490.985104 L246.617116,292.629344 L298.101094,344.098778 C315.615586,361.608322 338.130166,392.44734 368.141453,437.445196 C369.217583,453.507266 375.792732,468.504269 387.426667,480.134918 C399.948898,492.653611 416.645532,499.330573 434.176655,499.330573 C436.681101,499.330573 439.185547,499.330573 440.855504,499.330573 C443.35995,499.330573 445.864397,497.661088 447.534354,495.157349 C449.20431,492.653611 449.20431,489.315619 447.534354,486.81188 L423.324381,445.917808 C429.167763,435.0686 440.021015,428.391638 452.543246,429.225891 L475.917751,469.285709 C476.75224,471.789448 480.092154,473.458933 482.5966,473.458933 C485.935535,472.62468 488.439982,471.789448 490.109938,469.285709 C510.144529,439.239868 501.795723,399.18005 472.577837,378.315887 Z M281.813701,71.3009428 C254.539588,44.9854116 234.084252,36.4957604 211.072,33.949064 C259.653422,18.6688856 295.450259,19.5174528 331.247096,35.6471932 C351.702431,44.1358496 358.521209,50.9273716 376.419628,68.7542464 L407.102631,99.3146031 C413.921409,106.106125 418.182271,114.594782 419.035243,123.083438 C419.887216,127.328263 419.887216,130.723527 419.887216,133.270223 C419.887216,142.608442 420.739188,149.398969 430.966856,159.585755 C434.375746,162.981018 439.48958,164.679147 443.751441,164.679147 C448.865275,164.679147 453.127136,162.981018 455.684053,159.585755 L485.515083,189.297544 C487.220027,190.995673 488.072,192.692808 488.072,195.239504 C488.072,197.786201 487.220027,199.48433 485.515083,201.181464 L425.001049,261.453611 C421.59216,264.848874 416.478326,264.848874 413.068438,261.453611 L383.237407,231.741821 C386.646297,229.195125 388.351241,224.950299 387.499268,219.856906 C387.499268,215.612081 385.794324,210.518688 382.385434,207.123424 C372.157767,196.936639 365.338989,196.088071 355.964292,196.088071 C353.407375,196.088071 349.998486,196.088071 345.736625,195.239504 C336.36093,194.390937 328.690179,190.146111 321.8724,183.354589 L285.22359,146.852273 C303.972982,123.933 302.269037,91.6745139 281.813701,71.3009428 Z M16.0476805,50.758244 L33.7754654,81.4081176 C35.4641556,83.9622737 37.9966963,85.665377 40.529237,85.665377 L44.7504679,85.665377 C64.1669429,86.5164298 81.8947277,76.2998053 90.3362002,59.2727629 L92.0248905,55.0155035 C93.7135807,52.4613473 93.7135807,49.9071912 92.0248905,47.3530351 L73.4522659,15.0000582 C83.5824287,16.7031615 92.8687409,21.8114738 100.466363,29.4739422 C109.169993,38.9831852 114.742572,51.0096688 115.072,63.9281116 C114.90877,64.5836118 114.816767,65.2889979 114.816767,66.0841785 C114.816767,70.027157 114.344884,73.873357 113.471355,77.5808743 C110.286883,89.9086684 102.650679,100.657076 92.0239012,107.802727 C75.1399668,118.870404 52.3471006,118.870404 35.4641556,106.951674 C17.7363708,94.1788982 10.1387487,71.1914931 16.0476805,50.758244 Z M167.156391,191.888919 C141.694197,165.529465 116.232004,145.121889 89.072,128.965227 C93.3160304,127.264263 98.408469,124.713316 102.651505,122.162369 C115.382601,113.659545 123.869668,102.604777 128.962106,89.0000582 C145.08783,116.210492 165.457585,141.719962 190.919778,167.229432 L220.072,196.435783 L197.21073,222.000058 L167.156391,191.888919 Z M53.6112555,484.454223 C46.8291132,491.255657 35.8090012,492.105462 29.026859,485.304028 L17.1583583,474.25257 C13.7677839,470.852351 12.072,466.60133 12.072,462.350309 C12.072,457.249483 13.7677839,452.998462 18.0057536,448.748438 L22.8069977,443.361686 L34.9606126,455.549872 C36.6563965,457.250479 38.351187,458.100285 40.8943662,458.100285 C43.4375453,458.100285 45.1333293,457.250479 46.8281198,455.549872 C50.2186942,452.149653 50.2186942,447.048826 46.8281198,443.647611 L34.0089072,430.791935 L45.2118102,418.222183 L58.6966204,431.745351 C60.3924043,433.445958 62.0871948,434.295764 64.630374,434.295764 C67.1735532,434.295764 68.8693371,433.445958 70.5641276,431.745351 C73.954702,428.345132 73.954702,423.244305 70.5641276,419.84309 L56.4157066,405.653428 L274.467492,161.000058 L310.072,196.705843 L275.088385,235.957301 C274.088995,236.381705 273.204843,237.030267 272.324664,237.913946 L238.41594,276.170144 C237.447346,277.141493 236.765854,278.253314 236.3506,279.421921 L53.6112555,484.454223 Z M258.072,281.959972 L281.320675,256.000058 L336.217335,310.763161 C351.508718,326.864464 377.843544,347.203371 416.072,372.627005 C410.974873,374.322245 405.877745,376.864608 400.780618,380.254095 C390.240913,386.825508 382.776409,395.949216 377.57475,406.035248 C377.498094,406.179249 377.427411,406.326229 377.351751,406.471224 C377.043136,407.078014 376.742485,407.687784 376.449798,408.301527 C376.030679,409.170498 375.632466,410.049401 375.251177,410.937242 C374.990347,411.538074 374.730513,412.138906 374.484617,412.743711 C374.449773,412.831104 374.415925,412.918498 374.381081,413.005892 C374.113283,413.66929 373.847476,414.332688 373.596602,415.000058 C368.771255,407.940034 364.129086,401.277255 359.664121,395.000795 L371.048038,383.644575 C374.445791,380.255088 374.445791,375.170361 371.048038,371.779881 C367.650285,368.390394 362.553157,368.390394 359.154409,371.779881 L349.683906,381.227343 C346.153747,376.448495 342.744048,371.940765 339.454808,367.703162 L347.261775,359.915188 C350.659528,356.525701 350.659528,351.440974 347.261775,348.050494 C343.864022,344.661008 338.766894,344.661008 335.368146,348.050494 L328.883246,354.519617 C322.639265,347.012694 316.880108,340.624013 311.581883,335.338678 L258.072,281.959972 Z M485.095292,451.705709 L467.362731,421.453409 C465.673586,418.932384 463.140363,417.251373 460.60714,417.251373 L456.384771,417.251373 C436.963065,415.570361 419.230504,426.495459 410.786757,443.301636 L409.097612,447.503672 C407.408467,450.024697 407.408467,452.545722 409.097612,455.066747 L427.674251,487.000058 C417.541359,485.319047 408.252545,480.276997 400.652875,472.713922 C392.112154,463.505287 386.591509,451.905618 386.072,439.431469 C386.216473,438.816969 386.297615,438.157169 386.297615,437.419573 C386.297615,426.774151 389.693717,416.807239 395.612157,408.36476 C399.248718,403.328619 403.796645,398.919779 409.096622,395.403146 C417.540369,389.521083 426.829183,387.000058 436.962076,387.000058 C447.094968,387.000058 457.22786,390.361097 465.671607,396.244145 C483.407136,408.848285 491.006805,431.537509 485.095292,451.705709 Z" id="Shape"></path>
        </g>
    </g>
</svg>
